<?xml version="1.0" encoding="utf-8"?>
<!-- Generator: Adobe Illustrator 27.5.0, SVG Export Plug-In . SVG Version: 6.00 Build 0)  -->
<svg version="1.1" id="Capa_1" xmlns="http://www.w3.org/2000/svg" xmlns:xlink="http://www.w3.org/1999/xlink" x="0px" y="0px"
	 viewBox="0 0 2122 2122" style="enable-background:new 0 0 2122 2122;" xml:space="preserve">
<g>
	<path style="fill:#EA869E;" d="M2009.848,1053.847l-0.059-4.825c-0.005-1.162-0.017-2.324-0.035-3.483
		c-0.048-3.194-0.119-6.379-0.201-9.562c-0.053-2.209-0.124-4.415-0.195-6.621c-0.242-7.2-0.526-13.818-0.873-20.224l-0.094-1.893
		c-0.041-0.95-0.088-1.902-0.142-2.849c-0.46-7.869-1.044-15.977-1.722-24.09c-0.107-1.242-0.224-2.48-0.337-3.716l-0.206-2.195
		c-0.56-6.232-1.181-12.431-1.847-18.421c-0.271-2.507-0.543-5.017-0.838-7.518c-0.879-7.429-1.757-14.269-2.695-20.914
		c-0.39-2.761-0.809-5.515-1.234-8.27l-0.761-5.025c-0.36-2.374-0.713-4.752-1.103-7.117c-0.04-0.28-0.241-0.51-0.512-0.596
		c-0.248-0.083-0.525-0.021-0.719,0.144c-0.017,0.012-0.036,0.026-0.048,0.041c-19.223,18.366-39.05,32.587-62.403,44.763
		c-16.835,8.777-35.51,16.582-53.567,24.126c-57.141,23.881-116.234,48.573-140.378,110.398
		c-10.211,26.102-11.532,55.614-12.811,84.158c-1.829,40.778-3.557,79.291-29.082,108.248
		c-36.236,41.138-91.513,35.399-150.022,29.334c-0.301-0.076-0.649,0.159-0.78,0.466l-37.09,92.309
		c-3.416,8.506-9.975,15.184-18.464,18.805c-8.488,3.622-17.855,3.74-26.349,0.319l-15.166-6.094
		c-8.506-3.415-15.19-9.975-18.811-18.463c-3.623-8.488-3.735-17.85-0.318-26.356l25.216-62.75c0.1-0.248,0.06-0.531-0.106-0.743
		c-0.159-0.213-0.419-0.348-0.69-0.289c-3.728,0.472-6.973,0.967-9.916,1.516c-81.721,15.26-134.757,93.036-167.543,150.206
		c-5.149,8.996-10.328,18.286-15.33,27.27c-32.72,58.693-66.555,119.391-122.7,155.456c-36.124,23.211-74.955,29.966-106.508,18.581
		c-26.344-9.556-47.078-29.907-67.222-65.995c-0.201-0.354-0.631-0.472-0.985-0.318l-13.733,6.536
		c-15.732,7.497-34.642,0.779-42.134-14.965l-6.458-13.567c-7.498-15.744-0.779-34.649,14.964-42.14l12.83-6.106
		c0.183-0.088,0.325-0.253,0.389-0.448c0.065-0.195,0.047-0.407-0.047-0.59c-21.979-41.745-49.09-77.209-78.401-102.568
		c-34.313-29.682-70.325-44.718-107.074-44.718c-0.743,0-1.487,0.006-2.23,0.018c-0.289,0.006-0.548,0.177-0.672,0.436
		c-0.123,0.26-0.082,0.572,0.1,0.797c16.463,20.291,13.661,50.54-6.247,67.423l-17.413,14.77
		c-9.815,8.329-22.35,12.328-35.286,11.278c-12.929-1.056-24.645-7.054-32.973-16.876l-30.816-36.319
		c-0.206-0.242-0.554-0.313-0.844-0.219c-19.223,7.279-44.771,14.771-71.758,8.311c-59.548-14.287-84.034-84.977-94.091-141.764
		l-1.387-7.934c-9.939-57-21.206-121.597-69.705-153.71c-32.844-21.767-73.617-22.062-113.049-22.344
		c-18.894-0.136-38.43-0.271-56.97-2.749c-35.274-4.678-69.67-19.555-99.465-43.02c-0.23-0.18-0.531-0.21-0.79-0.091
		c-0.255,0.124-0.426,0.38-0.431,0.667c-0.065,2.943-0.065,5.952-0.065,8.895c0,61.249,5.852,122.366,17.383,181.661
		c0.072,0.348,0.366,0.602,0.714,0.614c25.99,0.949,52.74-6.141,78.625-13.019c40.878-10.877,79.485-21.129,113.981-1.386
		c44.512,25.477,49.584,87.048,49.697,112.33c0.042,13.254-0.738,26.822-1.487,39.94c-1.693,29.606-3.439,60.226,4.065,89.266
		c16.043,62.244,77.232,108.885,141.232,108.885c2.313,0,4.631-0.059,6.955-0.183c29.89-1.587,58.877-12.423,86.913-22.905
		c33.977-12.7,69.145-25.801,105.21-21.878c67.706,7.362,106.632,64.39,147.841,124.77c21.619,31.676,43.97,64.426,70.932,89.579
		c21.448,19.938,47.024,34.885,76.029,44.429c0.041,0.012,0.095,0.017,0.154,0.023c23.801,7.863,49.13,11.768,74.583,11.768
		c30.638-0.006,61.442-5.669,89.891-16.918c1.628-0.643,3.245-1.375,4.803-2.083c0.808-0.366,1.616-0.731,2.424-1.085
		c0.813-0.354,1.633-0.696,2.447-1.044c1.858-0.784,3.781-1.599,5.639-2.495c25.985-12.535,48.294-29.346,66.308-49.951
		c1.551-1.722,3.192-3.651,5.015-5.917c23.553-29.187,40.483-64.981,56.851-99.6c23.59-49.88,45.87-96.999,86.27-126.304
		c7.32-5.315,15.142-9.928,23.246-13.714c50.788-23.737,110.997-13.726,169.218-4.041c4.684,0.779,9.361,1.557,14.027,2.312
		c56.492,9.208,110.773,15.301,153.957-10.523c6.342-3.793,12.405-8.264,18.033-13.29c42.926-38.325,48.901-102.308,54.174-158.759
		c0.337-3.581,0.667-7.137,1.003-10.671c6.742-70.178,27.194-117.945,60.781-141.989c5.986-4.277,12.453-7.845,19.23-10.606
		c14.198-5.775,29.748-7.834,44.783-9.827c12.01-1.593,24.427-3.238,36.213-6.76c3.273-1.02,6.128-2.017,8.718-3.05l0.46-0.159
		c0.277-0.106,0.472-0.366,0.484-0.667l0.064-1.398c0.254-4.218,0.449-8.441,0.638-12.724l0.064-1.622
		c0.166-4.182,0.33-8.317,0.449-12.494c0.189-4.707,0.253-9.515,0.318-14.263c0.064-4.731,0.123-9.524,0.123-14.254
		C2009.906,1058.383,2009.877,1056.115,2009.848,1053.847z"/>
	<g>
		<path style="fill:#FEE5BC;" d="M1610.651,1482.24c-4.661-0.761-9.327-1.534-14.004-2.312
			c-58.469-9.727-118.931-19.784-170.131,4.158c-8.194,3.834-16.092,8.488-23.478,13.844
			c-40.713,29.541-63.075,76.825-86.752,126.882c-16.334,34.543-33.222,70.254-56.662,99.306c-1.806,2.236-3.429,4.152-4.956,5.846
			c-0.236,0.259-0.259,0.649-0.059,0.938c0.142,0.206,0.377,0.325,0.619,0.325c0.094,0,0.188-0.018,0.277-0.053
			c136.951-54.616,259.911-140.266,355.589-247.688c0.182-0.206,0.236-0.495,0.147-0.755
			C1611.146,1482.47,1610.921,1482.282,1610.651,1482.24z"/>
		<path style="fill:#FEE5BC;" d="M1009.987,1791.323c-28.787-9.462-54.175-24.297-75.463-44.087
			c-26.84-25.035-49.143-57.72-70.715-89.325c-41.409-60.675-80.524-117.981-148.92-125.413
			c-36.454-4.011-71.764,9.196-105.9,21.961c-27.932,10.441-56.812,21.235-86.477,22.804
			c-65.794,3.498-130.197-43.739-146.636-107.563c-7.451-28.827-5.704-59.335-4.017-88.835c0.749-13.131,1.522-26.709,1.486-40
			c-0.118-25.547-5.262-87.762-50.452-113.639c-35.044-20.056-73.941-9.703-115.12,1.239c-25.771,6.854-52.434,13.897-78.183,12.972
			c-0.26,0.006-0.454,0.082-0.602,0.265c-0.153,0.171-0.212,0.407-0.17,0.631c28.036,144.614,90.723,282.739,181.279,399.445
			c0.118,0.154,0.284,0.248,0.455,0.283c15.726,6.73,31.682,13.207,45.22,18.663c150.028,60.15,325.392,125.207,508.141,135.842
			c16.529,0.95,33.175,1.427,49.887,1.427c31.911,0,64.054-1.734,96.031-5.203c0.354-0.035,0.631-0.318,0.666-0.672
			C1010.541,1791.766,1010.323,1791.435,1009.987,1791.323z"/>
	</g>
	<path style="fill:#F6B28A;" d="M2007.942,1116.772c-0.213-0.159-0.478-0.195-0.719-0.094l-0.46,0.159h-0.005
		c-2.561,1.021-5.303,1.982-8.63,3.02c-11.656,3.486-24.009,5.12-35.953,6.707c-15.13,2.006-30.779,4.076-45.16,9.922
		c-6.896,2.814-13.467,6.436-19.525,10.771c-33.965,24.302-54.622,72.442-61.406,143.074c-0.341,3.534-0.672,7.09-1.008,10.671
		c-5.504,58.922-11.196,119.844-53.673,157.78c-5.556,4.961-11.55,9.373-17.808,13.113c-42.737,25.589-96.733,19.484-152.942,10.347
		c-0.249-0.041-0.513,0.041-0.692,0.242c-95.512,107.245-218.276,192.753-355.009,247.287c-0.112,0.047-0.213,0.112-0.29,0.207
		c-17.89,20.463-40.041,37.15-65.842,49.597c-1.823,0.879-3.721,1.681-5.561,2.46c-0.826,0.348-1.646,0.696-2.466,1.056
		c-0.82,0.354-1.634,0.725-2.443,1.091c-1.545,0.702-3.138,1.421-4.736,2.052c-51.785,20.481-111.398,22.344-163.555,5.096
		c-0.041-0.011-0.106-0.023-0.165-0.029c-0.083-0.011-0.154-0.029-0.224-0.005c-48.629,5.262-97.624,6.548-145.67,3.763
		c-182.513-10.618-357.741-75.628-507.658-135.736c-13.573-5.462-29.576-11.963-45.331-18.711c-0.313-0.142-0.684-0.035-0.891,0.236
		c-0.212,0.271-0.212,0.649,0,0.92c86.841,112.041,199.53,204.734,325.899,268.057c132.504,66.396,275.378,100.066,424.663,100.066
		c28.986,0,58.274-1.333,87.048-3.958c3.315-0.254,6.677-0.578,9.975-0.961c6.094-0.584,12.452-1.292,20.002-2.242
		c3.563-0.389,7.078-0.838,10.429-1.339c13.26-1.746,27.353-3.964,41.874-6.583c2.874-0.513,5.687-1.02,8.559-1.599l0.608-0.112
		c4.199-0.784,8.541-1.593,12.748-2.507c3.268-0.643,6.529-1.344,9.721-2.047c16.121-3.427,32.43-7.403,49.867-12.146
		c1.186-0.336,2.372-0.661,3.557-0.985c2.455-0.679,4.896-1.351,7.303-2.082c27.388-7.792,55.471-17.278,83.472-28.19
		c0.691-0.266,1.386-0.525,2.076-0.785c0.932-0.354,1.864-0.702,2.79-1.068c2.289-0.908,4.56-1.846,6.825-2.784l2.848-1.18
		c1.01-0.413,2.025-0.826,3.038-1.239c1.539-0.625,3.085-1.245,4.613-1.893c3.451-1.469,6.908-2.938,10.281-4.406
		c1.864-0.797,3.722-1.628,5.604-2.466l2.524-1.12c7.515-3.339,14.771-6.683,22.18-10.223l1.262-0.596
		c1.622-0.761,3.237-1.522,4.932-2.342c4.919-2.436,11.407-5.663,17.968-9.019c5.538-2.838,11.119-5.763,16.593-8.695
		c3.817-2.047,8.831-4.749,13.768-7.539c7.233-3.993,14.109-8.028,19.873-11.438c3.05-1.764,6.04-3.575,9.037-5.391l0.82-0.495
		c2.455-1.492,4.89-3.032,7.327-4.572l3.126-1.97c1.067-0.667,2.134-1.327,3.208-1.988c1.924-1.192,3.847-2.383,5.763-3.616
		c3.198-2.041,6.395-4.094,9.692-6.264c1.546-1.045,3.109-2.088,4.672-3.127c1.569-1.05,3.138-2.094,4.689-3.138l1.658-1.126
		c2.394-1.628,4.759-3.233,7.124-4.867l2.083-1.422c5.751-4.028,11.538-8.181,17.136-12.21c5.573-4.082,11.419-8.447,18.404-13.738
		c6.972-5.362,14.304-11.19,23.064-18.357c2.471-2.024,4.944-4.058,7.391-6.105c7.003-5.84,13.349-11.273,19.419-16.623
		c3.587-3.156,7.131-6.365,10.665-9.573c6.682-6.058,13.296-12.228,19.654-18.339c18.51-17.773,36.153-36.095,52.441-54.451
		l0.571-0.631c6.902-7.787,14.027-16.116,21.856-25.548c0.389-0.454,0.772-0.92,1.162-1.386c0.377-0.46,0.761-0.921,1.15-1.375
		c4.141-5.031,8.17-10.128,12.276-15.343c2.365-3.002,4.724-6.011,7.031-9.013c34.756-45.314,65.571-94.067,91.591-144.897
		c1.71-3.244,3.456-6.713,5.172-10.287c0.926-1.752,1.817-3.586,2.69-5.403l0.638-1.322c1.368-2.731,2.772-5.645,4.288-8.883
		c0.855-1.77,1.717-3.581,2.578-5.403l1.505-3.256c1.067-2.318,2.123-4.618,3.137-6.943c3.256-7.137,6.465-14.446,9.532-21.737
		l1.008-2.419c1.068-2.56,2.123-5.102,3.15-7.68l0.944-2.318c0.832-2.018,1.652-4.023,2.437-6.046
		c2.547-6.271,4.949-12.647,7.155-18.599c1.05-2.696,2.023-5.345,2.879-7.869c5.179-14.157,9.998-28.461,14.321-42.513
		c2.402-7.668,4.513-14.735,6.46-21.607c11.419-40.371,20.197-81.556,26.078-122.405c0.578-3.769,1.085-7.538,1.598-11.378
		l1.15-8.884c0.909-7.238,1.641-13.827,2.236-20.133c0.419-3.704,0.797-7.615,1.156-11.962c0.814-9.291,1.522-18.812,2.106-28.308
		C2008.261,1117.167,2008.149,1116.919,2007.942,1116.772z"/>
	<path style="fill:#F3A3B3;" d="M1997.319,906.169c0-0.065-0.006-0.144-0.012-0.174c-0.968-5.742-1.994-11.482-3.027-17.177
		c-0.059-0.304-0.106-0.608-0.147-0.911c-0.047-0.298-0.088-0.599-0.147-0.896c-0.124-0.614-0.247-1.162-0.366-1.675
		c-0.189-1.071-0.389-2.126-0.595-3.182c-0.189-0.97-0.372-1.938-0.555-2.944l-0.908-4.409c-0.166-0.826-0.325-1.651-0.477-2.477
		c-0.178-0.926-0.354-1.852-0.543-2.743c-0.065-0.428-0.159-0.835-0.248-1.236c-0.064-0.28-0.123-0.558-0.189-0.879
		c-0.052-0.227-0.094-0.454-0.135-0.681c-0.047-0.253-0.095-0.51-0.147-0.725c-0.283-1.543-0.626-3.082-0.961-4.625
		c-0.166-0.758-0.337-1.519-0.496-2.273l-0.33-1.567c-0.154-0.716-0.313-1.445-0.46-2.197l-0.903-3.979
		c-0.709-3.197-1.463-6.347-2.224-9.526l-0.425-1.773c-0.035-0.233-0.083-0.451-0.13-0.667c-0.042-0.177-0.082-0.351-0.123-0.622
		c-0.478-1.89-0.944-3.781-1.41-5.669c-0.472-1.917-0.944-3.831-1.433-5.749c-1.545-6.123-3.149-12.157-4.654-17.79
		c-0.171-0.551-0.325-1.1-0.472-1.643c-0.183-0.655-0.361-1.301-0.555-1.905c-0.543-1.938-1.091-3.873-1.634-5.739
		c-0.725-2.605-1.451-5.203-2.229-7.778c-0.366-1.404-0.732-2.743-1.156-4.076c-0.79-2.604-1.568-5.147-2.419-7.733
		c-2.135-6.934-4.7-15.145-7.549-23.448c-0.207-0.643-0.425-1.271-0.643-1.899c-0.235-0.669-0.467-1.339-0.678-2.009
		c-0.154-0.519-0.325-1.041-0.491-1.56c-0.165-0.507-0.329-1.012-0.53-1.652c-0.095-0.183-0.136-0.312-0.201-0.572
		c-1.936-5.498-3.935-10.998-5.946-16.54c-0.107-0.248-0.201-0.51-0.295-0.773c-0.118-0.313-0.235-0.628-0.325-0.802
		c-0.076-0.292-0.182-0.584-0.294-0.864c-0.071-0.189-0.147-0.372-0.213-0.605c-1.876-5.017-3.804-10.031-5.739-15.045l-0.549-1.401
		c-0.118-0.295-0.224-0.578-0.324-0.858c-0.112-0.292-0.218-0.584-0.342-0.885c-0.224-0.587-0.478-1.174-0.749-1.787l-0.277-0.634
		c-1.9-4.828-3.911-9.775-6.164-15.116c-0.484-1.153-0.973-2.306-1.451-3.386c-2.566-6.023-5.251-12.184-7.982-18.316
		c-2.766-6.152-5.575-12.234-8.341-18.077c-2.512-5.3-5.226-10.989-8.117-16.799c-0.159-0.216-0.23-0.395-0.289-0.549
		c-3.315-6.63-6.118-12.086-8.819-17.156l-2.182-4.179c-0.543-1.038-1.091-2.029-1.64-3.011l-0.17-0.31
		c-1.328-2.542-2.667-5.088-4.053-7.568c-0.076-0.133-0.207-0.239-0.354-0.304c-99.966-81.612-214.821-142.823-341.36-181.926
		c-0.247-0.065-0.507-0.017-0.714,0.145c-0.194,0.168-0.294,0.421-0.259,0.675l18.304,139.777
		c1.115,8.326-1.115,16.616-6.277,23.341c-5.155,6.725-12.588,11.028-20.917,12.113l-14.923,1.932
		c-8.3,1.13-16.612-1.112-23.336-6.274c-6.73-5.167-11.037-12.62-12.116-20.981l-22.591-172.27c-0.041-0.315-0.278-0.572-0.584-0.64
		c-81.651-18.13-166.28-26.936-251.57-26.232c-58.109,0.531-118.235,5.126-178.714,13.659c-0.266,0.035-0.495,0.216-0.595,0.466
		l-19.148,47.656c-3.433,8.497-9.993,15.169-18.481,18.791c-8.493,3.619-17.838,3.728-26.319,0.304l-15.161-6.103
		c-16.61-6.662-25.382-25.279-19.978-42.379c0.083-0.256,0.017-0.537-0.159-0.734c-0.183-0.201-0.46-0.289-0.719-0.23
		c-64.191,13.715-128.487,31.771-191.085,53.661c-0.236,0.082-0.412,0.277-0.484,0.516c-0.064,0.238-0.006,0.495,0.154,0.687
		l51.703,60.884c11.243,13.314,9.609,33.293-3.652,44.542l-11.478,9.724c-13.296,11.284-33.31,9.647-44.601-3.657l-70.006-82.512
		c-0.213-0.242-0.567-0.339-0.861-0.21c-49.337,20.109-98.132,42.757-145.033,67.316c-0.235,0.124-0.389,0.363-0.407,0.629
		c-0.012,0.268,0.112,0.522,0.336,0.669l67.836,45.244c14.505,9.715,18.422,29.405,8.73,43.892l-8.341,12.503
		c-4.648,6.993-11.786,11.757-20.096,13.414c-8.317,1.66-16.753-0.006-23.731-4.681l-101.842-67.954
		c-0.237-0.165-0.555-0.162-0.803-0.02c-85.862,50.906-166.374,108.79-239.306,172.043c-11.212,9.659-22.09,19.507-32.271,28.768
		c-12.8,11.691-23.282,21.563-32.992,31.063c-0.101,0.097-0.172,0.219-0.206,0.354c-1.151,4.534-2.243,9.07-3.334,13.673
		c-0.949,4.221-1.935,8.586-2.777,12.871c-1.293,5.943-2.355,10.942-3.334,16.062c-0.714,3.495-1.445,7.111-2.041,10.706
		c-0.833,4.085-1.628,8.5-2.424,13.49c-0.802,4.554-1.575,9.019-2.237,13.546c-0.967,6.406-1.934,12.809-2.843,19.274
		c-0.991,7.043-1.811,14.107-2.418,19.478l-0.413,3.761c-0.301,2.722-0.607,5.465-0.849,8.134c-0.36,3.147-0.667,6.385-0.909,9.609
		c-0.153,1.425-0.271,2.835-0.395,4.247c-0.118,1.398-0.242,2.796-0.396,4.227l-0.282,3.666c-0.19,2.463-0.384,4.937-0.626,7.459
		c-0.809,12.449-1.363,23.483-1.693,33.732c-0.119,3.687-0.237,7.436-0.301,11.122l-0.036,1.384
		c-0.106,4.241-0.211,8.45-0.265,12.753c-0.059,2.902-0.059,5.928-0.059,8.892c0,3.808,0,7.745,0.118,11.538
		c0,0.501,0.017,1.003,0.029,1.493c0.018,0.46,0.03,0.909,0.03,1.357c0.012,0.973,0.041,1.935,0.071,2.902
		c0.024,0.72,0.041,1.439,0.059,2.159c0.012,0.407,0.342,0.737,0.756,0.737c0.341-0.035,0.761-0.348,0.754-0.767
		c0-0.006,0-0.006,0-0.006v-0.018c-0.017-0.772-0.035-1.551-0.059-2.324c-0.03-1.032-0.059-2.064-0.071-3.262
		c-0.059-4.636-0.118-9.229-0.118-13.868c0-2.4,0-4.884,0.034-7.349c29.731,23.129,63.914,37.781,98.958,42.406
		c18.64,2.49,38.229,2.631,57.17,2.772c39.208,0.289,79.751,0.59,112.242,22.12c47.992,31.777,59.182,96.126,69.056,152.896
		l1.351,7.757c10.169,57.23,34.951,128.48,95.277,142.909c27.334,6.648,53.171-0.985,72.631-8.359
		c0.231-0.088,0.408-0.283,0.466-0.519c0.059-0.236,0-0.49-0.154-0.679l-154.635-182.235c-8.347-9.839-12.358-22.374-11.302-35.298
		c1.062-12.924,7.06-24.639,16.894-32.974l17.388-14.741c20.376-17.283,51.019-14.77,68.278,5.592l185.427,218.519
		c0.112,0.136,0.201,0.271,0.295,0.407c0.118,0.165,0.235,0.336,0.372,0.501c0.147,0.183,0.36,0.283,0.59,0.283
		c0.005,0,0.005,0,0.012,0c67.741-1.162,137.47,53.62,186.323,146.436c0.189,0.354,0.626,0.484,0.991,0.33l157.532-74.961
		c7.621-3.622,16.204-4.058,24.191-1.227c7.98,2.837,14.369,8.594,17.991,16.21l6.464,13.532
		c7.439,15.761,0.72,34.685-14.982,42.182l-156.63,74.537c-0.189,0.094-0.33,0.253-0.396,0.454
		c-0.064,0.201-0.041,0.413,0.059,0.596c12.612,22.604,33.382,54.109,68.002,66.662c10.205,3.681,21.159,5.486,32.52,5.486
		c24.286,0,50.463-8.258,75.356-24.22c56.375-36.201,90.269-96.976,123.049-155.75c5.049-9.049,10.269-18.416,15.46-27.471
		c32.573-56.905,85.279-134.309,166.498-149.492c2.891-0.537,6.005-1.014,9.804-1.504c0.271-0.035,0.501-0.213,0.607-0.466
		l51.343-127.637c3.398-8.512,9.945-15.196,18.434-18.817c8.482-3.628,17.849-3.74,26.367-0.331l15.166,6.1
		c17.632,7.125,26.196,27.223,19.088,44.801l-39.386,98.096c-0.088,0.224-0.064,0.472,0.053,0.672
		c0.125,0.206,0.337,0.336,0.573,0.36c58.893,6.123,114.53,11.904,151.29-29.789c25.89-29.364,27.625-68.142,29.465-109.203
		c1.274-28.42,2.59-57.802,12.712-83.644c23.943-61.291,82.748-85.859,139.623-109.62c18.062-7.547,36.744-15.351,53.614-24.143
		c12.647-6.592,23.92-13.567,34.467-21.321c9.863-7.152,19.112-14.9,28.29-23.683c0.177-0.174,0.266-0.431,0.218-0.679
		L1997.319,906.169z M1060.675,1350.539c-5.664,0-11.438-0.183-17.172-0.543c-152.895-8.907-272.669-135.984-272.669-289.304
		c0-143.85,107.251-267.266,249.482-287.074c13.26-1.876,26.839-2.828,40.359-2.828c159.821,0,289.847,130.049,289.847,289.903
		C1350.522,1220.513,1220.495,1350.539,1060.675,1350.539z"/>
	<path style="fill:#FDDFC2;" d="M668.136,932.459l-48.322-182.38c-4.683-17.661-22.887-28.234-40.519-23.539l-14.522,3.849
		c-8.524,2.256-15.673,7.727-20.133,15.402c-4.453,7.671-5.669,16.59-3.409,25.111l48.323,182.38
		c3.928,14.826,17.372,24.648,32.036,24.648c2.796,0,5.646-0.357,8.476-1.109l14.529-3.849c8.518-2.257,15.668-7.725,20.127-15.399
		C669.181,949.899,670.389,940.98,668.136,932.459z"/>
	<g>
		<path style="fill:#ED6E8F;" d="M1607.034,989.943l-48.328-182.38c-4.678-17.652-22.823-28.225-40.512-23.539l-14.529,3.849
			c-17.655,4.681-28.22,22.855-23.542,40.513l48.322,182.38c3.935,14.827,17.378,24.648,32.043,24.648
			c2.802,0,5.646-0.357,8.476-1.109l14.53-3.849C1601.153,1025.778,1611.712,1007.604,1607.034,989.943z"/>
		<path style="fill:#ED6E8F;" d="M590.745,601.994L433.821,497.241c-15.195-10.14-35.805-6.026-45.945,9.164l-8.348,12.499
			c-4.895,7.329-6.636,16.159-4.901,24.863c1.74,8.706,6.73,16.195,14.062,21.088l156.919,104.753
			c5.639,3.764,12.027,5.566,18.346,5.566c10.711,0,21.229-5.174,27.606-14.73l8.347-12.5c4.895-7.329,6.636-16.159,4.902-24.863
			C603.067,614.376,598.077,606.887,590.745,601.994z"/>
		<path style="fill:#ED6E8F;" d="M1131.713,1460.763c-3.787-7.958-10.482-13.98-18.841-16.947
			c-8.364-2.979-17.36-2.519-25.311,1.262l-170.368,81.072c-7.957,3.787-13.98,10.482-16.947,18.846
			c-2.972,8.365-2.524,17.354,1.263,25.312l6.459,13.567c5.668,11.916,17.578,18.894,29.972,18.894c4.76,0,9.597-1.032,14.18-3.209
			l170.368-81.072c7.958-3.787,13.979-10.482,16.946-18.846c2.974-8.365,2.525-17.354-1.262-25.311L1131.713,1460.763z"/>
		<path style="fill:#ED6E8F;" d="M1377.863,520.102c-10.01-15.293-30.592-19.581-45.869-9.577l-157.863,103.331
			c-7.373,4.825-12.434,12.27-14.252,20.956c-1.816,8.689-0.153,17.537,4.672,24.91l8.234,12.573
			c4.825,7.376,12.27,12.438,20.953,14.251c2.3,0.478,4.6,0.717,6.889,0.714c6.37,0,12.594-1.834,18.021-5.389l157.863-103.328
			c15.289-10.007,19.583-30.582,9.579-45.866L1377.863,520.102z"/>
	</g>
	<g>
		<path style="fill:#74C19E;" d="M1814.806,798.815L1692.472,654.62c-11.857-13.956-32.845-15.682-46.806-3.837l-11.485,9.745
			c-6.736,5.716-10.848,13.744-11.574,22.607c-0.725,8.866,2.018,17.458,7.734,24.194l122.334,144.195
			c5.715,6.736,13.743,10.845,22.61,11.573c0.931,0.077,1.864,0.115,2.789,0.115c7.863,0,15.378-2.737,21.407-7.851l11.485-9.745
			c6.737-5.713,10.842-13.741,11.573-22.607C1823.265,814.143,1820.516,805.551,1814.806,798.815z"/>
		<path style="fill:#74C19E;" d="M743.635,1373.025c-0.124-0.171-0.254-0.342-0.39-0.507L557.8,1153.934
			c-8.6-10.134-20.675-16.316-34.006-17.407c-13.343-1.121-26.255,3.038-36.396,11.633l-17.406,14.77
			c-10.134,8.595-16.316,20.676-17.408,34.007c-1.097,13.337,3.033,26.261,11.627,36.395l185.451,218.584
			c8.601,10.128,20.676,16.31,34.007,17.407c1.409,0.112,2.807,0.171,4.206,0.171c11.827,0,23.122-4.117,32.183-11.803l17.414-14.77
			c20.527-17.413,23.418-48.606,6.436-69.535C743.812,1373.267,743.723,1373.149,743.635,1373.025z"/>
		<path style="fill:#74C19E;" d="M676.842,376.612c-11.826-13.93-32.767-15.641-46.7-3.829l-11.461,9.724
			c-6.718,5.702-10.824,13.712-11.549,22.557c-0.726,8.845,2.018,17.419,7.716,24.14L736.91,573.078
			c6.547,7.713,15.891,11.682,25.294,11.682c7.574,0,15.189-2.581,21.406-7.854l11.461-9.721
			c6.718-5.701,10.819-13.715,11.544-22.56c0.726-8.845-2.018-17.419-7.715-24.14L676.842,376.612z"/>
	</g>
	<g>
		<path style="fill:#FCCA68;" d="M442.026,774.527l-13.944-5.604c-16.966-6.801-36.289,1.442-43.103,18.392L314.63,962.384
			c-6.806,16.95,1.445,36.283,18.393,43.096l13.945,5.604c4.034,1.619,8.211,2.389,12.31,2.389c13.136,0,25.6-7.866,30.791-20.781
			l70.343-175.069c3.287-8.175,3.18-17.177-0.306-25.341C456.625,784.121,450.201,777.815,442.026,774.527z"/>
		<path style="fill:#FCCA68;" d="M1076.236,199.454l-15.166-6.093c-8.889-3.566-18.652-3.454-27.505,0.333
			c-8.865,3.781-15.709,10.753-19.278,19.634l-76.506,190.391c-0.337,0.844-0.609,1.699-0.874,2.548
			c-5.657,17.835,3.498,37.265,20.84,44.235l15.166,6.094c4.306,1.728,8.819,2.592,13.337,2.592c4.802,0,9.609-0.976,14.169-2.923
			c8.867-3.781,15.708-10.753,19.277-19.634l76.501-190.391c3.569-8.878,3.45-18.649-0.33-27.508
			C1092.085,209.869,1085.113,203.024,1076.236,199.454z"/>
		<path style="fill:#FCCA68;" d="M1587.669,1183.174c-3.781-8.866-10.753-15.708-19.631-19.277l-15.166-6.094
			c-8.883-3.569-18.646-3.451-27.505,0.336c-8.866,3.781-15.709,10.747-19.278,19.625l-76.506,190.393
			c-3.569,8.884-3.444,18.652,0.336,27.512c3.782,8.865,10.754,15.708,19.631,19.277l15.166,6.094
			c4.306,1.728,8.819,2.589,13.332,2.589c4.8,0,9.609-0.973,14.174-2.926c8.865-3.781,15.709-10.748,19.278-19.625l76.5-190.394
			C1591.568,1201.802,1591.45,1192.034,1587.669,1183.174z"/>
		<path style="fill:#FCCA68;" d="M1489.991,573.665c1.145,8.739,5.651,16.529,12.689,21.938c5.874,4.509,12.889,6.889,20.132,6.889
			c1.439,0,2.884-0.094,4.335-0.283l14.9-1.953c8.742-1.147,16.534-5.654,21.937-12.691c5.409-7.037,7.752-15.726,6.607-24.465
			l-24.521-187.073c-1.145-8.742-5.651-16.531-12.688-21.94c-7.043-5.406-15.726-7.74-24.474-6.607l-14.9,1.953
			c-18.109,2.377-30.916,19.044-28.545,37.156L1489.991,573.665z"/>
	</g>
	<g>
		<path style="fill:#F2C0CC;" d="M1893.442,604.964c-6.79-12.408-14.146-25.117-21.861-37.776l-1.493-2.463
			c-2.979-4.858-6.264-10.081-10.039-15.974c-0.979-1.531-1.964-3.058-2.955-4.583c-3.161-4.861-6.406-9.763-9.65-14.564
			c-0.938-1.389-1.888-2.772-2.837-4.156l-0.944-1.383c-3.692-5.377-6.742-9.747-9.604-13.753c-0.967-1.362-1.952-2.716-2.937-4.071
			l-1.192-1.639c-3.126-4.324-6.482-8.946-9.88-13.467c-0.666-0.894-1.35-1.775-2.034-2.66c-0.525-0.687-1.056-1.374-1.582-2.064
			c-0.536-0.708-1.08-1.41-1.622-2.112l-3.35-4.356c-1.912-2.499-3.823-4.997-5.775-7.462c-4.637-5.869-9.579-11.969-14.7-18.127
			c-5.969-7.19-12.647-14.935-20.41-23.683c-1.268-1.43-2.542-2.864-3.823-4.285l-1.297-1.445c-1.834-2.044-3.662-4.088-5.521-6.111
			c-2.802-3.053-5.645-6.064-8.488-9.076l-1.622-1.746c-0.749-0.808-1.498-1.619-2.26-2.419c-0.902-0.941-1.804-1.873-2.713-2.805
			l-1.581-1.631c-2.991-3.103-6.017-6.182-9.055-9.244c-2.689-2.698-5.385-5.382-8.093-8.054c-2.979-2.923-5.963-5.837-8.972-8.724
			c-1.622-1.552-3.238-3.106-4.866-4.645c-4.707-4.448-9.09-8.515-13.402-12.435c-2.524-2.297-5.078-4.553-7.632-6.816l-4.33-3.84
			c-1.717-1.528-3.432-3.055-5.168-4.56c-6.405-5.556-12.393-10.621-18.298-15.481c-83.148-68.429-176.36-121.777-277.057-158.564
			c-104.19-38.062-213.776-57.36-325.717-57.36c-10.66,0-21.896,0.216-34.354,0.661c-0.967,0.035-1.935,0.062-2.903,0.091
			c-1.327,0.035-2.648,0.074-3.963,0.13c-1.916,0.082-3.822,0.191-5.727,0.298l-6.442,0.342c-2.754,0.138-5.509,0.277-8.252,0.454
			c-9.491,0.608-19.631,1.439-30.998,2.542l-2.566,0.245c-1.568,0.15-3.144,0.298-4.713,0.46c-2.507,0.262-5.003,0.546-7.492,0.826
			l-3.38,0.401c-6.3,0.731-12.464,1.507-18.322,2.304l-1.391,0.189c-4.224,0.575-8.448,1.147-12.819,1.811l-0.336,0.053
			c-6.247,0.947-12.688,1.994-19.141,3.109c-2.407,0.413-4.796,0.861-7.19,1.309l-5.41,0.997c-1.617,0.295-3.239,0.59-4.849,0.9
			c-2.637,0.504-5.255,1.035-7.88,1.566l-4.536,0.932c-15.013,3.097-29.954,6.551-44.406,10.266l0.189,0.732l-0.489-0.655
			l-2.005,0.51c-1.175,0.295-2.343,0.593-3.517,0.902c-10.311,2.722-20.805,5.701-32.077,9.108
			c-3.203,0.967-6.406,1.949-9.592,2.952c-4.554,1.427-9.102,2.864-13.626,4.356l-1.729,0.576c-1.674,0.56-3.345,1.141-5.013,1.719
			l-2.749,0.95c-12.865,4.403-25.819,9.157-38.506,14.127l-2.355,0.918c-1.309,0.507-2.613,1.011-3.916,1.533
			c-1.28,0.513-2.554,1.032-3.828,1.555l-3.704,1.522c-12.164,4.99-24.403,10.317-36.39,15.832l-1.752,0.808
			c-3.197,1.469-6.394,2.938-9.562,4.451c-12.388,5.899-25.017,12.266-37.551,18.932c-0.95,0.504-1.888,1.02-2.832,1.533
			l-2.158,1.177c-12.818,6.916-25.624,14.219-38.07,21.702l-1.97,1.173c-0.868,0.51-1.729,1.021-2.59,1.543
			c-6.501,3.964-12.835,7.919-18.817,11.756c-0.961,0.62-1.917,1.248-2.873,1.876c-0.731,0.481-1.456,0.962-2.194,1.436
			c-26.138,17-51.637,35.422-75.799,54.755l-2.82,2.286c-19.79,15.953-39.162,32.9-57.584,50.369
			c-1.445,1.375-2.884,2.749-4.329,4.13c-4.908,4.716-9.691,9.408-14.228,13.947l-1.233,1.227
			c-12.764,12.827-25.406,26.285-37.575,40l-3.049,3.424c-5.817,6.627-11.563,13.355-17.072,19.994
			c-2.412,2.902-4.801,5.819-7.179,8.751c-5.645,6.958-11.095,13.865-16.209,20.531c-7.515,9.809-14.717,19.574-21.406,29.025
			l-0.372,0.525c-5.739,8.117-11.598,16.729-17.909,26.335c-12.912,19.625-25.211,39.92-36.561,60.329
			c-1.244,2.242-2.484,4.492-3.71,6.745c-4.229,7.745-7.969,14.8-11.443,21.569l-1.888,3.719
			c-10.465,20.649-20.333,42.07-29.34,63.674c-1.109,2.661-2.219,5.321-3.31,7.993c-0.396,0.982-0.785,1.967-1.174,2.956
			l-0.631,1.592c-1.698,4.25-3.398,8.5-5.044,12.776c-13.938,36.38-25.717,73.929-35.003,111.599
			c-0.081,0.327,0.066,0.667,0.355,0.835c0.118,0.068,0.247,0.1,0.377,0.1c0.195,0,0.384-0.074,0.525-0.216
			c9.898-9.659,20.669-19.808,32.938-31.024c12.948-11.783,22.894-20.643,32.243-28.73
			c72.819-63.197,153.273-121.028,239.112-171.884c0.224-0.133,0.365-0.369,0.37-0.628c0.007-0.26-0.117-0.504-0.335-0.649
			l-55.124-36.796c-6.996-4.669-11.763-11.818-13.419-20.127c-1.651-8.309,0.005-16.735,4.672-23.731l8.346-12.5
			c4.671-6.996,11.821-11.759,20.126-13.416c8.324-1.657,16.741,0.003,23.73,4.672l89.107,59.483
			c0.218,0.151,0.524,0.168,0.766,0.041c46.942-24.559,95.696-47.187,144.903-67.258c0.225-0.091,0.396-0.283,0.448-0.519
			c0.059-0.236,0-0.483-0.152-0.669l-52.051-61.35c-11.285-13.293-9.639-33.286,3.656-44.568l11.462-9.724
			c13.296-11.281,33.298-9.639,44.565,3.657l70.396,82.978c0.201,0.233,0.519,0.312,0.825,0.224
			c62.963-21.982,127.183-40,190.878-53.561c0.266-0.056,0.477-0.253,0.56-0.513c0.254-0.817,0.513-1.632,0.837-2.44l76.507-190.39
			c3.417-8.503,9.975-15.181,18.463-18.806c8.483-3.622,17.844-3.743,26.349-0.318l15.166,6.094
			c8.506,3.415,15.19,9.975,18.811,18.463c3.622,8.491,3.735,17.852,0.313,26.356l-57.353,142.741
			c-0.1,0.248-0.059,0.534,0.107,0.746c0.17,0.21,0.419,0.321,0.702,0.28c60.319-8.524,120.386-13.104,178.537-13.615
			c85.113-0.728,169.66,8.043,251.204,26.187c0.242,0.05,0.501-0.018,0.672-0.18c0.183-0.168,0.271-0.41,0.242-0.655l-1.94-14.788
			c-2.266-17.289,9.957-33.198,27.246-35.464l14.9-1.952c8.317-1.094,16.634,1.147,23.354,6.309
			c6.718,5.158,11.018,12.594,12.109,20.934l6.2,47.302c0.04,0.292,0.241,0.537,0.524,0.626
			c126.405,39.076,241.124,100.223,341.03,181.781c0.283,0.213,0.678,0.201,0.95-0.035
			C1893.542,605.666,1893.613,605.277,1893.442,604.964z"/>
		<path style="fill:#F2C0CC;" d="M945.224,596.517c-0.496,0.197-1.02,0.389-1.558,0.587c-1.392,0.516-2.837,1.047-3.987,1.72
			c-3.787,2.218-6.483,5.802-8.004,10.65c-2.908,9.261,0.719,19.041,8.819,23.784c3.05,1.782,6.453,2.684,9.91,2.684
			c2.602,0,5.232-0.51,7.762-1.54c5.904-2.401,10.234-7.199,11.88-13.166c1.917-6.963-0.064-14.464-5.173-19.572
			C960.384,597.169,951.961,593.842,945.224,596.517z"/>
		<path style="fill:#F2C0CC;" d="M791.243,715.566c0-5.407-1.776-10.453-5.002-14.207c-3.652-4.247-8.848-6.495-15.036-6.495
			c-13.761,0-20.031,10.745-20.031,20.728c0,9.969,6.27,20.701,20.031,20.701C784.974,736.294,791.243,725.549,791.243,715.566z"/>
		<path style="fill:#F2C0CC;" d="M512.014,1035.006c-12.971,0-18.875,10.122-18.875,19.531c0,5.094,1.669,9.845,4.707,13.382
			c3.445,4.005,8.341,6.123,14.169,6.123c12.972,0,18.876-10.123,18.876-19.531c0-5.094-1.669-9.845-4.707-13.382
			C522.738,1037.124,517.843,1035.006,512.014,1035.006z"/>
		<path style="fill:#F2C0CC;" d="M236.867,875.103c-13.236,0-19.266,10.332-19.266,19.929c0,9.588,6.029,19.905,19.266,19.905
			c13.237,0,19.266-10.332,19.266-19.929C256.133,885.42,250.104,875.103,236.867,875.103z"/>
		<path style="fill:#F2C0CC;" d="M1472.731,1092.434c-3.935-4.053-9.638-6.382-15.661-6.382c-6.017,0.006-11.722,2.33-15.65,6.382
			c-3.45,3.557-5.108,6.972-6.801,11.662c-2.589,7.143,0.1,17.348,5.993,22.757c4.848,4.454,10.541,6.807,16.463,6.807
			c5.958,0,12.276-2.619,16.475-6.825c5.191-5.185,8.907-14.652,5.981-22.74C1477.834,1099.4,1476.171,1095.984,1472.731,1092.434z"
			/>
		<path style="fill:#F2C0CC;" d="M1684.367,982.97c-5.286,0-10.547,2.33-14.435,6.394c-3.621,3.79-5.497,8.533-5.279,13.355
			c0.496,11.04,9.154,19.684,19.714,19.684c5.284,0,10.546-2.33,14.428-6.391c3.628-3.787,5.504-8.533,5.291-13.358
			C1703.591,991.615,1694.932,982.97,1684.367,982.97z"/>
		<path style="fill:#F2C0CC;" d="M1726.514,1358.844c-6.235-1.669-14.853-0.79-20.079,4.896c-4.813,5.249-6.594,11.974-5.007,18.941
			c1.615,7.067,8.44,12.966,16.233,14.016c0.861,0.117,1.728,0.171,2.583,0.171c6.866,0,13.42-3.615,16.865-9.497
			c4.359-7.45,3.014-17.844-3.062-23.66C1731.87,1361.629,1729.663,1359.688,1726.514,1358.844z"/>
		<path style="fill:#F2C0CC;" d="M1818.469,1080.978c-2.944-2.419-6.288-5.114-10.523-4.973c-4.483,0.201-7.662,2.755-10.735,5.22
			c-0.42,0.336-0.844,0.678-1.269,1.009c-2.341,1.823-3.799,5.533-4.459,7.58c-1.067,3.298-0.761,7.374,0.849,11.184
			c2.607,6.187,8.89,10.535,15.095,10.535c0.195,0,0.396-0.006,0.59-0.012c6.294-0.283,11.809-3.45,14.747-8.476
			c3.539-6.046,3.115-16.233-2.742-20.811C1819.506,1081.833,1818.994,1081.409,1818.469,1080.978z"/>
		<path style="fill:#F2C0CC;" d="M1134.078,1703.933c-10.983,0-15.985,8.571-15.985,16.534c0,7.952,5.002,16.51,15.985,16.51
			c10.984,0,15.986-8.571,15.986-16.534c0-4.306-1.416-8.329-3.987-11.326C1143.162,1705.726,1139.016,1703.933,1134.078,1703.933z"
			/>
		<path style="fill:#F2C0CC;" d="M799.118,1471.852c-4.643,0-9.267,2.047-12.676,5.616c-3.185,3.327-4.831,7.497-4.642,11.738
			c0.436,9.692,8.039,17.29,17.318,17.29c4.649,0,9.267-2.047,12.683-5.616c3.185-3.333,4.831-7.504,4.641-11.745
			C816.006,1479.444,808.397,1471.852,799.118,1471.852z"/>
		<path style="fill:#F2C0CC;" d="M665.429,1102.426c-7.769,0-16.004,3.409-21.501,8.901c0,0,0,0-0.005,0
			c-5.651,5.657-9.232,14.311-8.908,21.548c0.761,17.036,14.122,30.379,30.415,30.379c7.774,0,16.015-3.416,21.513-8.907
			c5.645-5.651,9.225-14.304,8.901-21.542C695.081,1115.769,681.722,1102.426,665.429,1102.426z"/>
	</g>
	<path style="fill:#EA869E;" d="M1020.316,773.618c13.26-1.876,26.839-2.828,40.359-2.828
		c159.821,0,289.847,130.049,289.847,289.903c0,159.821-130.026,289.847-289.847,289.847c-5.664,0-11.438-0.183-17.166-0.543
		c-0.407,0.018-0.73,0.253-0.796,0.643c-0.059,0.383,0.189,0.749,0.566,0.843c22.422,5.522,45.479,8.223,68.532,8.223
		c58.019,0,116.004-17.124,163.602-49.526c40.158-27.299,73.668-65.659,96.91-110.932c23.047-44.901,34.974-94.551,34.496-143.575
		c-0.956-98.096-51.413-196.136-131.677-255.861c-69.959-52.213-155.715-68.665-223.858-42.925
		c-10.723,4.091-21.312,9.249-31.463,15.337c-0.306,0.186-0.443,0.563-0.324,0.9
		C1019.626,773.464,1019.985,773.694,1020.316,773.618z"/>
</g>
</svg>
